<svg height="512" width="512" xmlns="http://www.w3.org/2000/svg" style=""><rect id="backgroundrect" width="100%" height="100%" x="0" y="0" fill="none" stroke="none"/><g class="currentLayer" style=""><title>Layer 1</title><path d="m467,289.11125469207764 h-74.79296875 c-24.8125,0 -45,20.1875 -45,45 v8.34375 h-40.578125 v-104.7421875 h16.515625 c41.82421875,0 75.84765625,-34.02734375 75.84765625,-75.8515625 s-34.0234375,-75.84765625 -75.84765625,-75.84765625 h-52.14453125 v-70.26171875 c0,-8.28515625 -6.714844226837158,-15 -15,-15 s-15,6.714844226837158 -15,15 v70.26171875 h-52.14453125 c-41.82421875,0 -75.84765625,34.0234375 -75.84765625,75.84765625 s34.0234375,75.8515625 75.84765625,75.8515625 h16.515625 v104.7421875 h-40.578125 v-8.34375 c0,-24.8125 -20.1875,-45 -45,-45 h-74.79296875 c-24.8125,0 -45,20.1875 -45,45 v123.24609375 c0,24.81640625 20.1875,45 45,45 h74.79296875 c24.8125,0 45,-20.18359375 45,-45 v-8.33984375 h182.4140625 v8.33984375 c0,24.81640625 20.1875,45 45,45 h74.79296875 c24.8125,0 45,-20.18359375 45,-45 v-123.24609375 c0,-24.8125 -20.1875,-45 -45,-45 zm-437,142.328125 v-20.703125 h104.79296875 v20.703125 zm104.79296875,-71.41015625 v20.70703125 h-104.79296875 v-20.70703125 zm-0.578125,-30 h-103.63671875 c1.785156011581421,-6.289062976837158 7.566405773162842,-10.91796875 14.421875,-10.91796875 h74.79296875 c6.855469226837158,0 12.63671875,4.628905773162842 14.421875,10.91796875 zm-103.63671875,131.41015625 h103.63671875 c-1.785156011581421,6.292969226837158 -7.566405773162842,10.91796875 -14.421875,10.91796875 h-74.79296875 c-6.855469226837158,0 -12.63671875,-4.625 -14.421875,-10.91796875 zm134.21484375,-88.984375 h182.4140625 v46.5625 h-182.4140625 zm70.578125,-134.7421875 h41.26171875 v104.7421875 h-41.26171875 zm-92.36328125,-75.8515625 c0,-25.28125 20.56640625,-45.84765625 45.84765625,-45.84765625 h134.2890625 c25.28125,0 45.84765625,20.56640625 45.84765625,45.84765625 s-20.56640625,45.8515625 -45.84765625,45.8515625 h-134.2890625 c-25.28125,0 -45.84765625,-20.5703125 -45.84765625,-45.8515625 zm234.19921875,269.578125 v-20.703125 h104.79296875 v20.703125 zm104.79296875,-71.41015625 v20.70703125 h-104.79296875 v-20.70703125 zm-0.578125,-30 h-103.63671875 c1.785156011581421,-6.289062976837158 7.566405773162842,-10.91796875 14.421875,-10.91796875 h74.79296875 c6.855469226837158,0 12.63671875,4.628905773162842 14.421875,10.91796875 zm-103.63671875,131.41015625 h103.63671875 c-1.785156011581421,6.292969226837158 -7.566405773162842,10.91796875 -14.421875,10.91796875 h-74.79296875 c-6.855469226837158,0 -12.63671875,-4.625 -14.421875,-10.91796875 zm0,0 " id="svg_1" class="" stroke="#ffffff" stroke-opacity="1" fill="#ffffff" fill-opacity="1"/><path d="m199.980469 158.203125c0 8.558594-6.941407 15.5-15.5 15.5-8.5625 0-15.5-6.941406-15.5-15.5s6.9375-15.5 15.5-15.5c8.558593 0 15.5 6.941406 15.5 15.5zm0 0" id="svg_2" class="" fill="#ffffff" fill-opacity="1"/><path d="m343.019531 158.203125c0 8.558594-6.9375 15.5-15.5 15.5-8.558593 0-15.5-6.941406-15.5-15.5s6.941407-15.5 15.5-15.5c8.5625 0 15.5 6.941406 15.5 15.5zm0 0" id="svg_3" class="" fill="#ffffff" fill-opacity="1"/></g></svg>